<svg width="29" height="31" viewBox="0 0 29 31" fill="none" xmlns="http://www.w3.org/2000/svg">
<path d="M10.4722 25.7778C9.99425 25.7778 9.52701 25.9195 9.12959 26.1851C8.73218 26.4506 8.42243 26.828 8.23951 27.2696C8.0566 27.7112 8.00874 28.1971 8.10199 28.6659C8.19524 29.1347 8.4254 29.5653 8.76338 29.9033C9.10136 30.2413 9.53197 30.4714 10.0008 30.5647C10.4695 30.6579 10.9555 30.6101 11.397 30.4272C11.8386 30.2442 12.2161 29.9345 12.4816 29.5371C12.7472 29.1397 12.8889 28.6724 12.8889 28.1944C12.8889 27.5535 12.6343 26.9388 12.1811 26.4856C11.7279 26.0324 11.1132 25.7778 10.4722 25.7778ZM27.3889 20.9444H8.05556C7.62826 20.9444 7.21847 20.7747 6.91633 20.4726C6.61419 20.1704 6.44444 19.7606 6.44444 19.3333C6.44444 18.906 6.61419 18.4962 6.91633 18.1941C7.21847 17.892 7.62826 17.7222 8.05556 17.7222H21.7358C22.7854 17.7188 23.8055 17.3754 24.6434 16.7435C25.4813 16.1115 26.0919 15.225 26.3836 14.2168L28.9379 5.27623C29.0064 5.03645 29.0183 4.78404 28.9727 4.53886C28.9271 4.29369 28.8252 4.06244 28.6751 3.86333C28.5249 3.66423 28.3306 3.50269 28.1074 3.39144C27.8842 3.28019 27.6383 3.22226 27.3889 3.22222H7.63517C7.30165 2.28352 6.68683 1.47048 5.87447 0.893867C5.06212 0.317257 4.09175 0.00512454 3.09557 0H1.61111C1.18382 0 0.774025 0.169741 0.471883 0.471883C0.169742 0.774025 0 1.18382 0 1.61111C0 2.0384 0.169742 2.4482 0.471883 2.75034C0.774025 3.05248 1.18382 3.22222 1.61111 3.22222H3.09557C3.44532 3.22344 3.78526 3.33792 4.06449 3.54852C4.34372 3.75912 4.54723 4.0545 4.64453 4.39044L4.89509 5.26807L4.89547 5.27623L7.53871 14.5275C6.30873 14.6599 5.17629 15.2587 4.37459 16.2009C3.57289 17.143 3.16296 18.3567 3.22919 19.592C3.29543 20.8273 3.8328 21.9902 4.73065 22.8412C5.62849 23.6923 6.81847 24.1666 8.05556 24.1667H27.3889C27.8162 24.1667 28.226 23.9969 28.5281 23.6948C28.8303 23.3926 29 22.9828 29 22.5556C29 22.1283 28.8303 21.7185 28.5281 21.4163C28.226 21.1142 27.8162 20.9444 27.3889 20.9444ZM25.2531 6.44444L23.2856 13.331C23.1884 13.6672 22.9848 13.9629 22.7054 14.1736C22.426 14.3844 22.0858 14.4989 21.7358 14.5H10.8821L10.4713 13.0625L8.58145 6.44444H25.2531ZM23.3611 25.7778C22.8831 25.7778 22.4159 25.9195 22.0185 26.1851C21.6211 26.4506 21.3113 26.828 21.1284 27.2696C20.9455 27.7112 20.8976 28.1971 20.9909 28.6659C21.0841 29.1347 21.3143 29.5653 21.6523 29.9033C21.9902 30.2413 22.4209 30.4714 22.8896 30.5647C23.3584 30.6579 23.8443 30.6101 24.2859 30.4272C24.7275 30.2442 25.1049 29.9345 25.3705 29.5371C25.636 29.1397 25.7778 28.6724 25.7778 28.1944C25.7778 27.5535 25.5232 26.9388 25.07 26.4856C24.6167 26.0324 24.0021 25.7778 23.3611 25.7778Z" fill="white"/>
</svg>
