<svg width="29" height="30" viewBox="0 0 29 30" fill="none" xmlns="http://www.w3.org/2000/svg">
<path d="M26.5833 29.0755L19.2578 21.75C17.1432 23.3611 14.7517 24.1667 12.0833 24.1667C9.9184 24.1667 7.90451 23.638 6.04167 22.5807C4.17882 21.4731 2.71875 19.9878 1.66146 18.125C0.553819 16.2622 0 14.2483 0 12.0833C0 9.9184 0.553819 7.90451 1.66146 6.04167C2.71875 4.17882 4.17882 2.71875 6.04167 1.66146C7.90451 0.553819 9.9184 0 12.0833 0C14.2483 0 16.2622 0.553819 18.125 1.66146C19.9878 2.71875 21.4731 4.17882 22.5807 6.04167C23.638 7.90451 24.1667 9.9184 24.1667 12.0833C24.1667 14.8021 23.3359 17.2188 21.6745 19.3333L29 26.6589L26.5833 29.0755ZM12.0078 20.6172C14.3741 20.6172 16.388 19.7865 18.0495 18.125C19.6606 16.4635 20.4661 14.4748 20.4661 12.1589C20.4661 9.79253 19.6606 7.80382 18.0495 6.19271C16.388 4.53125 14.3741 3.70052 12.0078 3.70052C9.69184 3.70052 7.70313 4.53125 6.04167 6.19271C4.38021 7.80382 3.54948 9.79253 3.54948 12.1589C3.54948 14.4748 4.38021 16.4635 6.04167 18.125C7.70313 19.7865 9.69184 20.6172 12.0078 20.6172Z" fill="white"/>
</svg>
